<?xml version="1.0" encoding="UTF-8"?>
<!DOCTYPE svg PUBLIC "-//W3C//DTD SVG 1.1//EN" "http://www.w3.org/Graphics/SVG/1.1/DTD/svg11.dtd">
<!-- Creator: CorelDRAW -->
<svg xmlns="http://www.w3.org/2000/svg" xml:space="preserve" width="186mm" height="112mm" style="shape-rendering:geometricPrecision; text-rendering:geometricPrecision; image-rendering:optimizeQuality; fill-rule:evenodd; clip-rule:evenodd"
viewBox="0 0 186 112"
 xmlns:xlink="http://www.w3.org/1999/xlink">
 <defs>
  <style type="text/css">
   <![CDATA[
    .str0 {stroke:#373435;stroke-width:0.2}
    .fil0 {fill:#606062}
   ]]>
  </style>
 </defs>
 <g id="Capa_x0020_1">
  <metadata id="CorelCorpID_0Corel-Layer"/>
  <path class="fil0 str0" d="M7.3145 21.9716c-0.1748,0.8812 -0.031,26.3784 -0.0588,28.394 -1.861,1.2249 -5.651,8.8004 -6.63,10.7347 -0.2038,0.4077 -0.1384,12.2657 -0.0717,13.484 24.2866,0 17.9455,-15.5093 20.495,-20.5797 0.0065,-0.013 0.022,-0.0297 0.0285,-0.0429 0.2203,-0.4437 0.0915,-24.3029 0.0915,-24.304 0,-0.8347 0.0225,-1.6747 0.0327,-2.5102 0.0432,-3.4794 0.7273,-6.0818 3.0386,-8.9411 0.6311,-0.544 1.8476,-1.519 2.6525,-1.8223 0.0205,-0.0077 0.0419,-0.014 0.0615,-0.0223l0.613 -0.2533c0.2724,-0.1441 -0.0228,-0.1855 0.6856,-0.2506 -0.1614,5.6793 -0.5019,11.5848 -0.513,17.408 -0.0132,6.6 -0.0741,72.8601 0.0056,73.4195 0.0227,0.159 0.1269,0.0817 0.1935,0.3181 0.0931,0.331 -0.002,0.743 0.0726,1.0913 0.0613,0.2855 0.0599,0.166 0.096,0.2263 0.3884,0.6509 -0.0865,-0.3222 0.1191,0.1769 0.0641,0.1559 0.0329,0.2767 0.082,0.4618 0.0917,0.345 0.116,0.1707 0.2329,0.4034l0.1108 0.2735c0.1834,0.3076 0.1912,0.0551 0.2601,0.657 0.2264,0.102 0.3091,0.2397 0.4763,0.4095 0.0109,0.0113 0.0278,0.0276 0.0389,0.0389 0.1754,0.1797 0.7481,0.698 0.943,0.7733l1.4121 0.0644 0.145 0.2378 1.0197 0.0176 18.2777 -0.0078 0.1571 -0.2256 1.8823 -0.1015c0.2494,-0.0477 -0.1781,-0.0132 0.5179,-0.3008 0.1605,-0.0662 0.1897,-0.1375 0.3378,-0.2663l1.1078 -1.1161c0.1537,-0.1693 0.1229,-0.0958 0.2276,-0.3872 0.3638,-0.6199 0.2605,-0.0278 0.3074,-1.147 0.4504,-0.0121 0.2797,-0.4461 0.2857,-1.7544l0 -31.3672c0.205,0.0074 0.4463,0.0426 0.5954,0.1442l1.0589 0.7369c0.4666,0.2543 0.154,0.0378 0.5229,0.3495l0.1755 0.0941c0.0095,0.0961 0.007,0.2142 0.044,0.3107 0.0772,0.202 0.0276,0.0764 0.1397,0.1909l0.1554 0.1415c0.1225,0.1035 0.05,0.0685 0.2543,0.1475 0.1637,0.0634 0.0947,0.0004 0.2265,0.0859l0.3101 0.3036c0.1727,0.1696 0.2864,0.1742 0.5064,0.2847l0.3632 0.28c0.1677,0.1484 0.2079,0.1656 0.4512,0.2535 0.3226,0.1163 0.1076,0.1357 0.4268,0.267 0.2443,0.1004 0.2418,0.0684 0.4453,0.2479 0.1015,0.0896 0.0795,0.0574 0.1827,0.1486 0.2814,0.2492 0.2839,0.1594 0.7196,0.4451 0.0815,0.0535 -0.0068,0.0116 0.1522,0.0677 0.1093,0.0387 0.1405,0.0194 0.2466,0.0766 0.1732,0.0936 0.0667,0.088 0.2058,0.1777l0.5373 0.2675c0.271,0.1797 0.6469,0.2751 0.8729,0.4671 0.1415,0.1202 0.3002,0.1526 0.5176,0.1838 0.0966,2.5754 -0.0563,5.1553 0.0023,7.7326 0.0345,1.5089 0.2411,0.4132 0.3373,1.7469l0.2658 0.0572c0.0241,0.4301 0.1609,0.5197 0.2994,0.8599 0.1478,0.3627 0.1948,0.201 0.3476,0.7483 0.117,0.015 0.2259,0.0183 0.3375,0.0556 0.2096,0.0701 0.1614,0.1088 0.2962,0.2332 0.1192,0.1097 0.0438,0.0285 0.1369,0.1093l0.2026 0.2411c0.1239,0.0109 0.4403,0.0254 0.5436,0.0498 0.1752,0.0416 0.1299,0.0479 0.2072,0.0986 0.0765,0.0501 -0.1552,0.2121 1.3671,0.2055l2.4319 -0.0638c0.2147,-0.4084 -0.0981,-0.1239 0.3791,-0.2881 0.171,-0.0588 0.1379,-0.044 0.2097,-0.0974l0.952 -0.8185c0.0283,-0.2425 0.0229,-0.3043 0.1191,-0.4576 0.1389,-0.2212 0.0872,0.144 0.1977,-0.3895 0.0361,-0.1744 0.0208,-0.3083 0.1172,-0.4718l0.0649 -0.0864c0.0087,-0.0145 0.0236,-0.0321 0.0315,-0.0475l0.2348 -0.6246c0.1889,-0.3209 0.1243,-1.1461 0.138,-1.6093 0.0141,-0.4757 -0.0973,-1.3819 0.136,-1.8075 0.3174,-0.5788 -0.0501,0.2864 0.1102,-0.183l0.0581 -2.2717 8.8099 0.0642c0.0074,0.5896 -0.116,4.7631 0.1682,5.258 0.1732,0.3016 0.1035,0.6909 0.1948,0.9928 0.1466,0.4843 -0.0059,-0.0491 0.1716,0.2784l0.1002 0.4926c0.2576,0.1791 0.1145,-0.0449 0.2339,0.1915 0.1323,0.2624 0.1207,0.352 0.3064,0.5612 0.0107,0.012 0.0246,0.031 0.0355,0.0433l0.198 0.2029c0.0123,0.0108 0.031,0.0243 0.0433,0.035l1.0313 1.0317c0.7619,0.0357 3.6962,0.238 4.2531,-0.0786 0.4028,-0.229 -0.179,-0.014 0.2379,-0.156l0.3726 -0.0438c0.145,-0.0727 0.0864,-0.1996 0.3916,-0.292 0.2145,-0.0649 0.2323,-0.0943 0.3761,-0.2444l0.7575 -0.7019 0.0767 -0.7715 0.2608 -0.091c0.0004,-0.0175 0.0048,-9.0927 0.1121,-9.3312 0.006,-0.0134 0.0187,-0.0336 0.0259,-0.0468 0.0072,-0.0134 0.0213,-0.032 0.0294,-0.0449 0.0971,-0.1549 0.1807,-0.2239 0.3134,-0.3129l0.1449 -0.0942c0.2795,-0.1809 0.8198,-0.3365 1.1286,-0.5913 0.1486,-0.1227 0.3957,-0.1586 0.5822,-0.2768 0.0155,-0.0099 0.0301,-0.027 0.0459,-0.0368 0.0162,-0.0102 0.0322,-0.0254 0.0491,-0.035 0.0175,-0.0099 0.0361,-0.0215 0.0546,-0.0305 0.2202,-0.1063 0.2936,-0.0854 0.4641,-0.2293l0.3229 -0.3733 0.7475 -0.0913c0.1756,-0.2936 0.045,-0.107 0.2819,-0.3027 0.0138,-0.0115 0.0322,-0.0263 0.0456,-0.0377 0.0129,-0.0111 0.0287,-0.0282 0.0412,-0.0391 0.1345,-0.1188 0.0229,-0.0693 0.1589,-0.136 0.5194,-0.2547 0.1882,0.0591 0.6894,-0.4196 0.2293,-0.2191 0.4745,-0.1934 0.7335,-0.4417l0.1274 -0.1114c0.0122,-0.0109 0.0301,-0.0259 0.0419,-0.037l0.3972 -0.3824c0.3184,-0.289 0.2762,0.0047 1.0986,-0.8749l0.4384 -0.4148c0.419,-0.3958 0.8831,-0.5113 1.3333,-0.902 0.0595,10.3738 0.0196,20.7505 0.003,31.1245l0.0607 2.51c0.1945,0.1341 0.1644,0.0413 0.2554,0.3189 0.1074,0.327 0.2091,0.3708 0.3342,0.6872 0.0079,0.0203 0.0148,0.0417 0.0238,0.0613l0.2548 0.5494c0.0753,0.1788 0.0773,0.1169 0.2483,0.2887l0.1523 0.1589c0.0114,0.0109 0.0294,0.0257 0.0408,0.0366 0.0116,0.0109 0.0296,0.0259 0.0412,0.0368l0.4518 0.4086c0.139,0.1044 0.3579,0.1368 0.5506,0.1633 0.0169,0.4136 0.739,0.2793 1.6876,0.3156l0.1568 0.2346c6.1941,0.0977 12.3965,0.0072 18.5915,0.0072 0.3405,0 1.0323,0.1102 1.3247,-0.069 0.3655,-0.224 -0.2681,-0.0892 0.3192,-0.2025 0.1486,-0.0287 0.3064,0.0015 0.465,-0.0409 0.2751,-0.0732 0.2047,-0.1788 0.7237,-0.2601 0.5199,-0.0813 0.227,-0.0301 0.4452,-0.2101 0.0182,-0.015 0.0697,-0.0583 0.0873,-0.0732l0.7028 -0.7016c0.8975,-0.9975 0.3817,-0.9123 0.7062,-1.3225l0.134 -0.1518 0.0505 -3.4895c0.3615,-0.0307 0.2418,-0.698 0.2428,-1.0592 0.0421,-15.7859 0.0085,-31.5721 0.0083,-47.3582 0.1811,0.0072 0.4997,0.0729 0.5961,0.1353l0.4426 0.4105c0.0116,0.0105 0.0296,0.0248 0.0416,0.0353l1.0396 1.0217c0.0102,0.0112 0.0248,0.0292 0.035,0.0403l1.821 1.8512c0.0107,0.011 0.0269,0.0271 0.0378,0.0379l0.8622 0.8585c0.0102,0.0128 0.0239,0.0317 0.0342,0.0449l0.6821 0.6599c0.0315,0.2318 0.1714,0.263 0.3112,0.4022l0.2397 0.2293c0.0109,0.0109 0.0264,0.0278 0.0371,0.0389l0.2392 0.2342c0.0128,0.0106 0.0316,0.0241 0.0448,0.0344 0.0132,0.0102 0.0319,0.0239 0.0451,0.0339l1.2283 1.2054c0.2383,0.2064 0.7867,0.7613 0.8704,0.9965 0.0924,0.2597 0.0358,5.8301 0.0248,7.0057l0.0717 1.8584 0.1846 0c0.0009,0.4771 -0.0276,4.4661 0.0806,4.8616 0.1262,0.4611 0.1184,-0.2543 0.2374,0.4101 0.0299,0.167 -0.0044,0.4651 0.0139,0.6443 0.0716,0.699 0.0257,0.0616 0.2101,0.4766 0.1319,0.2962 0.0196,0.9458 0.0991,1.3222 0.129,0.6105 0.0717,-0.0987 0.2325,0.4606 0.0581,0.2018 0.0276,0.4977 0.16,0.7173l0.0665 0.0859c0.1428,0.2527 0.1162,0.7372 0.1368,1.0373l0.2608 0.0298 0.0509 0.5674c0.4146,0.2251 0.1768,0.1617 0.4468,0.6872 0.0729,0.1415 0.0773,0.3323 0.1045,0.4893 0.2572,0.1244 0.3219,0.2311 0.5368,0.3923 0.0391,0.5202 0.1431,0.4121 0.2804,0.7272 0.0945,0.2168 0.0908,0.2615 0.2529,0.4398 0.3567,0.3923 0.309,0.5408 0.491,0.7793 0.2293,0.3002 0.1487,0.4143 0.3902,0.6804 0.0104,0.0114 0.0276,0.0269 0.038,0.0385 0.51,0.5685 0.3365,0.9993 0.6843,1.3351l0.3482 0.315c0.1998,0.2313 0.2033,0.4201 0.3784,0.654 0.0106,0.0143 0.0266,0.0305 0.0375,0.044 0.0109,0.0134 0.0264,0.0305 0.0373,0.0435l0.109 0.1278c0.1614,0.1788 0.1643,0.2713 0.2842,0.4897l0.3286 0.379c0.0109,0.0117 0.028,0.0276 0.0387,0.0392 0.1575,0.1698 0.1964,0.4509 0.3557,0.6406l0.0755 0.0792c0.1561,0.2329 0.1598,0.3761 0.35,0.5914 0.0152,0.017 0.0571,0.0709 0.0722,0.0883l0.2223 0.2422c0.2286,0.275 0.2397,0.5434 0.507,0.8342 0.1837,0.1996 0.2694,0.3548 0.3557,0.5991 0.0929,0.2631 0.1682,0.1761 0.2795,0.4197l0.3287 0.7047c0.4178,0.0369 0.1899,0.3147 0.6098,0.7958 0.0104,0.012 0.0259,0.0292 0.0363,0.0409 0.4856,0.5388 0.0681,0.4596 0.8025,0.951 0.0261,0.2515 0.0764,0.4331 0.1892,0.554l0.188 0.2009c0.0114,0.013 0.026,0.0309 0.0373,0.0443 0.1598,0.1896 0.1911,0.3675 0.2492,0.6119 0.2054,0.0219 0.1528,-0.1019 0.4757,0.3985 0.276,0.4276 0.0018,0.5259 0.6438,0.8484 0.0091,0.1526 0.0155,0.2679 0.0732,0.3927l0.2445 0.3163c0.2516,0.2896 0.2435,0.2977 0.344,0.7118 0.2204,0.0785 0.0914,0.0171 0.2084,0.119 0.3835,0.3339 0.2399,0.3712 0.4458,0.7439l0.2293 0.2489c0.0122,0.0109 0.0315,0.0243 0.0435,0.0352 0.2847,0.2606 0.039,0.3995 0.8657,1.1876 0.2189,0.2085 0.1922,0.462 0.3972,0.6781 0.2112,0.2226 0.397,0.4312 0.6487,0.6146 0.0248,0.2759 0.1142,0.4084 0.2749,0.5917 0.0115,0.0128 0.0266,0.0304 0.0379,0.0433l0.8651 0.859c0.4061,0.403 0.7661,0.8502 1.2007,1.2221 0.2902,0.2487 0.5503,0.5473 0.8666,0.6962 0.3491,0.1644 0.4787,0.2876 0.6944,0.6075 0.2241,0.0243 0.417,0.0729 0.557,0.1924l0.0736 0.072 0.5282 0.2663c0.1911,0.1399 -0.0178,0.0311 0.2627,0.1107l0.3828 0.2819c0.2121,0.0729 0.5378,0.0039 0.7325,0.1102 0.5609,0.306 0.8977,0.069 1.3027,0.3354 0.4069,0.2677 1.3576,0.1844 1.887,0.1897l4.4713 -0.0698c0.0688,-0.0146 0.2458,-0.1906 0.4783,-0.2681 0.3603,-0.1202 0.2457,-0.1927 0.6051,-0.2552 0.0848,-0.0148 0.2536,-0.0315 0.3254,-0.0617 0.1369,-0.0579 0.0847,-0.0555 0.1415,-0.0935 0.0141,-0.0095 0.0291,-0.0269 0.0437,-0.0361 0.6462,-0.4148 0.6031,-0.3845 1.387,-0.4646 0.0776,-0.1658 0.0851,-0.1612 0.224,-0.2735l0.0945 -0.0725c0.4463,-0.3749 0.7381,-0.3423 1.2203,-0.6485 0.0136,-0.0087 0.0317,-0.0229 0.0449,-0.0319 0.0136,-0.0093 0.0321,-0.0234 0.0454,-0.0329l0.5039 -0.4372c0.3022,-0.2411 0.44,-0.2034 0.7606,-0.5093l0.7718 -0.8745c0.3689,-0.0287 0.262,-0.126 0.4389,-0.361l0.3346 -0.3639c0.2038,-0.2228 0.2451,-0.2834 0.3694,-0.5685 0.0669,-0.1534 0.0427,-0.092 0.0885,-0.1527l0.4673 -0.4142c0.0531,-0.5529 0.1812,-0.4751 0.378,-0.9174 0.0818,-0.1843 0.1447,-0.2061 0.265,-0.3539 0.2493,-0.3056 0.2373,-0.5519 0.3033,-0.9251 0.8252,-0.5374 0.3291,-1.2032 0.7418,-1.8908 0.0088,-0.015 0.0245,-0.0313 0.0329,-0.047 0.1285,-0.2415 0.0433,-0.4748 0.1522,-0.7094 0.1062,-0.2285 0.1804,-0.1878 0.2072,-0.5604 0.0185,-0.2603 0.0213,-0.5304 0.0392,-0.7916 0.0349,-0.5055 0.1264,-0.4705 0.1781,-0.5599 0.008,-0.0137 0.0229,-0.0309 0.0301,-0.0459 0.0078,-0.0158 0.0194,-0.0347 0.0259,-0.0521 0.1316,-0.3525 -0.038,-0.4741 0.2284,-0.8203 0.1044,-0.1357 0.0416,0.2174 0.094,-0.2439 0.0419,-0.3693 -0.0046,-1.2505 0.0841,-1.5528 0.1354,-0.4615 0.1384,0.2253 0.2368,-0.5123 0.0279,-0.2109 -0.0013,-0.5521 0.0582,-0.7462 0.1264,-0.4129 -0.0401,0.1149 0.1424,-0.2375 0.1499,-0.2893 0.0757,-0.7537 0.1223,-1.082 0.0533,-0.3766 0.1551,-0.246 0.2332,-0.5151 0.0597,-0.2056 0.0167,-0.5317 0.0588,-0.7413 0.1424,-0.7105 0.1255,0.1037 0.2469,-0.5058 0.0623,-0.3125 -0.0535,-0.8386 0.1121,-1.1181 0.1484,-0.2506 0.1822,0.1292 0.2156,-0.9179 0.0227,-0.7123 0.0971,-0.5826 0.1475,-0.6658 0.1362,-0.2248 0.0005,0.2552 0.1154,-0.2429 0.0324,-0.1404 0.0255,-0.1968 0.0336,-0.3434 0.0141,-0.2569 0.0115,-0.5397 0.0374,-0.7933 0.0705,-0.691 0.082,-0.0951 0.1937,-0.5548 0.116,-0.4766 -0.0396,-0.8564 0.2216,-1.3004 0.1658,-0.2819 0.0496,-0.768 0.1976,-1.06 0.1989,-0.3923 0.0118,0.1792 0.1426,-0.2353 0.1091,-0.3458 0.028,-1.0919 0.1397,-1.4449 0.0208,-0.0657 0.38,-0.7689 0.4689,-1.1438l0.085 -1.6262 0.24 -0.157c0.0113,-0.3725 -0.0167,-0.8044 0.0586,-1.1733 0.1,-0.4891 -0.0302,0.0236 0.1569,-0.2974 0.1663,-0.2857 0.0867,-0.7695 0.1393,-1.1223 0.0773,-0.5173 0.2399,-0.2445 0.2635,-1.0146 0.0401,-1.3203 0.2174,-0.8175 0.2927,-1.4064 0.085,-0.6651 0.111,-0.2668 0.2532,-0.5862l0.1019 -2.1653c0.1405,-0.4118 0.1148,0.3094 0.2394,-0.4155 0.0197,-0.1153 0.0017,-0.2476 0.0239,-0.3689 0.0917,-0.501 0.1061,-0.0963 0.2193,-0.465 0.185,-0.6024 -0.0956,-1.3475 0.2228,-1.9118 0.2341,-0.415 0.2297,-3.9359 -0.013,-4.328l-0.0678 -0.0892c-0.0874,-0.1614 -0.0742,-0.354 -0.0887,-0.5349l-0.2504 -0.0434 -0.0651 -0.7853c-0.2517,-0.1646 -0.1825,-0.0961 -0.2887,-0.3795 -0.0675,-0.1805 -0.0501,-0.1293 -0.1059,-0.2018 -0.2397,-0.3115 -0.2029,-0.5081 -0.46,-0.8073l-0.0708 -0.082c-0.233,-0.2549 -0.0885,0.0114 -0.2455,-0.3972 -0.1228,-0.3198 -0.4645,-0.5975 -0.7031,-0.8448 -0.154,-0.1596 -0.2404,-0.4523 -0.3965,-0.6162l-0.3735 -0.431c-0.5734,-0.6629 -0.3645,-0.5357 -0.5433,-0.7905 -0.3101,-0.4427 -0.2571,-0.009 -0.3403,-0.7837l-0.2573 -0.1568 -0.0433 -0.7918 -0.2429 -0.071c-0.0385,-3.8254 -0.0178,-7.6367 0.0313,-11.4629 0.3464,-0.0379 0.1987,-0.0773 0.2026,-0.9305 0.0144,-3.2174 0.0516,-6.4315 -0.0076,-9.6481 -0.3037,-0.2095 -0.234,0.0038 -0.2516,-0.5435 -0.0136,-0.4175 0.0249,-0.4411 -0.2774,-0.688 -0.0412,-0.6508 -0.2563,-0.3947 -0.3506,-1.1218 -0.2205,-0.0605 -0.1366,-0.0528 -0.2411,-0.1541l-0.4254 -0.4557c-0.0112,-0.0112 -0.029,-0.0264 -0.0403,-0.0375l-0.7552 -0.7462c-0.2877,-0.2286 -0.2449,0.0111 -0.5707,-0.4111 -0.6158,-0.0081 -2.1142,-0.2136 -2.598,0.1104 -0.0139,0.0093 -0.0287,0.0271 -0.0423,0.0366l-0.6209 0.3065c-0.1425,0.0946 -0.3636,0.1072 -0.5316,0.1451 -0.1419,0.2347 -0.0261,0.1744 -0.3165,0.2715 -0.4996,0.2997 -0.0572,0.2596 -0.8602,0.3473 -0.0872,0.1835 -0.169,0.2173 -0.3212,0.3456 -0.1734,0.1459 -0.0581,0.1079 -0.2571,0.189 -0.3459,0.1406 -0.5138,0.2985 -0.9122,0.343 -0.0926,0.2167 -0.2117,0.285 -0.3779,0.4256 -0.1121,0.0948 -0.0056,0.0461 -0.1886,0.1272l-0.4793 0.2336c-0.0179,0.0139 -0.0704,0.0544 -0.0874,0.0691l-0.2802 0.2646c-0.4587,0.4162 -0.5588,0.2782 -0.9747,0.7388l-0.2905 0.1814c-0.0224,0.2554 -0.1829,0.3064 -0.3411,0.4581l-0.0792 0.0754c-0.0164,0.0154 -0.0665,0.0575 -0.0829,0.0732 -0.0118,0.0111 -0.029,0.0269 -0.0405,0.0382l-0.3449 0.3504c-0.0109,0.0114 -0.0259,0.0295 -0.0366,0.0411 -0.011,0.0115 -0.0256,0.0296 -0.0365,0.0411l-0.7828 0.7986c-0.0155,0.0178 -0.0589,0.0685 -0.0748,0.0852l-0.3497 0.3541c-0.2422,0.2369 -0.2105,0.1829 -0.2793,0.5887l-0.1989 0c-0.0425,-0.4271 -0.007,-0.1045 -0.167,-0.2879l-0.1948 -0.3719c-0.1334,-0.296 -0.169,-0.1054 -0.3212,-0.7314 -0.1987,-0.0743 -0.2034,-0.119 -0.3368,-0.2496l-0.084 -0.0776c-0.1188,-0.1276 -0.067,-0.0217 -0.1397,-0.2344 -0.0681,-0.1987 -0.0101,-0.1431 -0.1044,-0.2989 -0.0095,-0.0156 -0.0248,-0.0322 -0.035,-0.0468l-0.2184 -0.2568c-0.1903,-0.2069 -0.3432,-0.353 -0.4617,-0.6207 -0.0696,-0.1575 -0.0425,-0.1439 -0.1267,-0.2664 -0.2752,-0.401 -0.28,-0.2163 -0.5262,-0.7392 -0.1413,-0.3006 -0.5443,-0.6322 -0.8161,-0.8288 -0.0478,-0.6677 -0.4137,-0.5985 -0.5628,-0.9238l-0.1195 -0.4772c-0.4299,-0.1394 -0.063,0.0146 -0.2501,-0.1581l-0.2717 -0.2884c-0.0704,-0.1324 -0.0674,-0.2748 -0.1482,-0.4076l-0.5912 -0.6588c-0.0103,-0.0114 -0.0285,-0.0257 -0.0385,-0.0375l-0.1839 -0.3798c-0.1123,-0.2527 0.0306,-0.0042 -0.1225,-0.1754l-0.1165 -0.1174c-0.0153,-0.0171 -0.0574,-0.0713 -0.0727,-0.0885l-0.0743 -0.0831c-0.1772,-0.1925 -0.3796,-0.3372 -0.4806,-0.5972 -0.1306,-0.3359 -0.0757,-0.249 -0.3237,-0.488 -0.1761,-0.1695 -0.202,-0.3138 -0.325,-0.5412 -0.1609,-0.297 0.1175,0.1187 -0.0998,-0.1211l-0.3418 -0.3625c-0.2592,-0.2768 -0.3511,-0.6519 -0.5843,-0.9051l-0.2573 -0.3115c-0.2175,-0.2624 -0.2668,-0.1866 -0.3722,-0.4881 -0.1186,-0.3395 -0.0208,-0.2208 -0.2547,-0.4319l-0.1761 -0.1587c-0.2149,-0.2022 -0.0264,0.0649 -0.1454,-0.1589 -0.0387,-0.0727 -0.0393,-0.1514 -0.0711,-0.2434 -0.0954,-0.2756 -0.38,-0.4884 -0.6098,-0.7181 -0.1829,-0.1827 -0.1901,-0.3645 -0.3012,-0.5751 -0.1005,-0.1903 0.0359,0.032 -0.1819,-0.1977l-0.3353 -0.3706c-0.0722,-0.081 -0.0222,-0.0349 -0.1118,-0.1302 -0.1277,-0.1363 -0.079,-0.0467 -0.1524,-0.153l-0.3736 -0.7346c-0.4806,-0.0278 -0.1332,-0.2427 -0.5192,-0.6468l-0.302 -0.3259 -0.2378 -0.488c-0.0102,-0.0139 -0.026,-0.0308 -0.0366,-0.0444l-0.7794 -0.8613c-0.2406,-0.2517 -0.0514,0.037 -0.2237,-0.3956 -0.0808,-0.2029 -0.1229,-0.2471 -0.251,-0.3884 -0.0107,-0.012 -0.0271,-0.0289 -0.038,-0.0403 -0.1404,-0.1466 -0.1285,-0.0592 -0.2091,-0.2496 -0.0174,-0.0414 -0.0501,-0.2126 -0.0662,-0.251 -0.0584,-0.1404 -0.224,-0.283 -0.3889,-0.4575l-0.0787 -0.0778c-0.0121,-0.012 -0.0288,-0.0278 -0.0413,-0.0396 -0.0127,-0.0123 -0.0296,-0.0284 -0.0426,-0.0405 -0.2844,-0.2673 -0.2309,-0.1556 -0.4557,-0.4838 -0.1138,-0.1665 -0.2085,-0.4275 -0.3615,-0.5898 -0.0793,-0.0843 -0.0538,-0.0698 -0.1496,-0.1686 -0.2782,-0.2867 -0.2085,-0.4906 -0.4868,-0.7457l-0.1304 -0.1193c-0.0755,-0.0698 -0.1137,-0.1035 -0.1578,-0.1505 -0.4462,-0.4751 -0.2269,-0.5161 -0.733,-1.0693 -0.3853,-0.4213 -0.3506,-0.1575 -0.5469,-0.7022l-0.4843 -0.6251c-0.0113,-0.012 -0.0267,-0.0298 -0.0378,-0.0419l-0.0732 -0.0852c-0.1639,-0.176 -0.2035,-0.2686 -0.3026,-0.4884 -0.0767,-0.17 -0.108,-0.149 -0.2399,-0.2935l-0.1474 -0.1695c-0.0155,-0.0166 -0.0615,-0.0597 -0.0769,-0.076 -0.0106,-0.0113 -0.0271,-0.0273 -0.0375,-0.0388l-0.3283 -0.397c-0.1548,-0.1969 -0.2177,-0.4065 -0.3011,-0.6429 -0.4373,-0.0382 -0.1538,-0.0342 -0.3291,-0.2262l-0.1095 -0.1195c-0.1649,-0.1814 -0.3282,-0.2881 -0.4012,-0.4523 -0.0403,-0.091 -0.0498,-0.2222 -0.0926,-0.299 -0.0861,-0.155 -0.4074,-0.432 -0.5611,-0.6885 -0.3958,-0.0404 -0.1376,-0.0211 -0.3409,-0.2236 -0.0109,-0.0108 -0.0267,-0.0277 -0.0374,-0.0384 -0.011,-0.0111 -0.0284,-0.0266 -0.0393,-0.0377l-0.462 -0.4718c-0.1283,-0.1276 -0.3743,-0.1639 -0.5237,-0.2614l-1.0345 -1.0042c-0.0794,-0.0743 -0.0453,-0.0332 -0.129,-0.1109 -0.1459,-0.1353 -0.1359,-0.1826 -0.3517,-0.258 -0.2272,-0.0792 -0.0957,0.0215 -0.293,-0.1057l-0.453 -0.431c-0.1008,-0.0569 -0.1645,-0.0407 -0.2802,-0.1065 -0.0132,-0.0076 -0.0322,-0.0203 -0.0445,-0.0289 -0.2225,-0.1549 -0.3735,-0.4262 -0.6517,-0.5174l-0.5553 -0.2383c-0.4612,-0.1763 -0.5753,-0.4692 -1.0007,-0.6301 -0.3284,-0.1242 -0.2647,-0.187 -0.5802,-0.3042 -0.2541,-0.0944 -0.1227,-0.0349 -0.2522,-0.1257 -0.0139,-0.0097 -0.0308,-0.0254 -0.0445,-0.0356l-0.2295 -0.1789c-0.0118,-0.0104 -0.0275,-0.0273 -0.0389,-0.0377 -0.0111,-0.01 -0.0252,-0.0285 -0.0363,-0.0382 -0.0827,-0.0732 -0.2823,-0.1302 -0.5491,-0.1779 -0.1624,-0.2436 -0.1135,-0.1903 -0.3845,-0.2887 -0.2235,-0.0811 -0.1142,-0.0346 -0.2121,-0.1091 -0.283,-0.2147 0.1691,-0.0324 -0.3481,-0.1867l-0.2837 -0.2728c-0.1559,-0.0063 -0.2406,-0.0037 -0.3571,-0.0424 -0.3113,-0.1035 -0.3766,-0.4062 -0.7541,-0.5451l-0.5965 -0.0357 -0.1232 -0.2656c-0.3484,-0.3488 -1.1967,-0.2724 -1.4931,-0.3377 -0.5644,-0.1242 0.0077,-0.2363 -1.4076,-0.2988 -0.2247,-0.0099 -0.4768,0.0146 -0.6904,-0.0477 -0.314,-0.0914 0.0508,-0.1933 -0.8786,-0.2197l-2.8256 -0.0255c-32.0971,0 -65.046,-0.7344 -97.0367,0.0409 -0.1199,0.0028 -0.2865,-0.0009 -0.3993,0.0066 -10.6927,0.704 -20.0362,11.8956 -21.9381,21.4827zm157.453 53.2138c-1.8636,0.8693 -0.6362,0.5382 -1.3845,1.2734 -0.4449,0.4371 -0.2119,0.2497 -0.5588,0.8731 -0.1397,0.2515 -0.0706,0.4234 -0.1355,0.6541 -0.1679,0.5952 -0.1492,-0.1807 -0.2293,0.5324l0.009 1.1844c0.0904,0.4974 0.0153,0.0791 0.1207,0.2621 0.2031,0.3523 0.0892,0.6286 0.1441,0.7569 0.1799,0.4201 0.0542,-0.2754 0.285,0.4643l0.5769 0.9104 1.2173 1.0859c0.0655,0.0273 0.2506,-0.0325 0.4894,0.1061 0.0154,0.009 0.0307,0.0256 0.0453,0.0349l0.1902 0.1248c0.3228,0.1154 2.4132,0.0371 2.8309,0.0292 0.0234,-0.2887 -0.2211,-0.2024 0.8317,-0.329 0.018,-0.149 -0.0339,-0.1532 0.4117,-0.4574 0.3363,-0.2296 0.0413,0.1526 0.6809,-0.4864l0.1533 -0.1617c0.3159,-0.3121 0.0313,0.0792 0.1855,-0.1972 0.1225,-0.2194 -0.0241,-0.0976 0.2115,-0.4369 0.0331,-0.0477 0.0416,-0.0254 0.098,-0.1426 0.0388,-0.0804 0.0588,-0.2177 0.0909,-0.2895 0.1154,-0.2593 0.1749,-0.0741 0.2478,-0.5533 0.1091,-0.7162 0.2698,-0.2501 0.2698,-1.4272 0,-0.4121 0.0359,-0.5415 -0.1298,-0.8115 -0.1251,-0.2041 -0.1022,-0.1392 -0.1414,-0.4574 -0.0166,-0.1337 -0.0164,-0.223 -0.069,-0.3389 -0.008,-0.0173 -0.021,-0.0349 -0.03,-0.0509l-0.0688 -0.0915c-0.1698,-0.2758 -0.0793,-0.2265 -0.1654,-0.4037 -0.1123,-0.2315 0.0535,0.0438 -0.095,-0.1333l-1.0831 -1.1663c-0.4852,-0.4701 -0.3821,-0.2356 -1.3833,-0.6608l-0.0327 -0.2822 -2.9684 0.0416c-0.0464,0.6371 -0.5716,-0.1067 -0.6149,0.5441zm-112.287 -55.8414c-1.6581,0.1417 -0.7059,0.0621 -1.3643,0.3307 -0.0958,0.0391 -0.1348,0.0303 -0.2315,0.0786 -0.0153,0.0078 -0.0345,0.0194 -0.0489,0.0279l-0.5229 0.4199c-0.0966,0.048 -0.1548,0.038 -0.2525,0.0693 -0.2633,0.0845 -0.1802,0.1625 -0.4231,0.2661 -0.0993,0.0424 -0.1529,0.0299 -0.2501,0.078l-0.3766 0.321c-0.3129,0.3011 0.0934,0.0688 -0.4344,0.2628 -0.3433,0.126 -0.6404,0.5286 -0.8722,0.7873l-0.7914 0.7714c-0.0111,0.0115 -0.0259,0.0296 -0.037,0.041 -0.2272,0.2339 -0.2492,0.4455 -0.4252,0.6843l-0.182 0.2221c-0.4206,0.4805 -0.0839,0.4674 -0.504,0.8548l0.0202 1.8039c0.1327,0.3075 -0.0793,-0.1408 0.0915,0.0961l0.0944 0.1498c0.0765,0.1799 0.0466,0.283 0.0903,0.4782 0.0888,0.3977 0.1432,0.1142 0.2847,0.8447 0.271,0.0694 0.4646,0.2987 0.5584,0.5553 0.1792,0.4894 -0.0371,0.0982 0.2373,0.3884l0.6297 0.8578c0.097,0.2328 0.0192,0.0906 0.1158,0.2064 0.0146,0.0175 0.0646,0.0574 0.0804,0.0734 0.0109,0.0109 0.0292,0.0252 0.0401,0.0361 0.0111,0.0111 0.0277,0.0271 0.0388,0.0384 0.2124,0.2196 -0.1143,-0.1276 0.0742,0.0834 0.0113,0.0128 0.0261,0.0306 0.0375,0.0436l1.6172 1.6862c0.0153,0.0175 0.0583,0.0671 0.0741,0.0836l0.1589 0.1516c0.0111,0.0112 0.028,0.0272 0.0391,0.0385l0.3052 0.3152c0.0111,0.0115 0.0264,0.0289 0.0376,0.0405 0.2454,0.2561 0.3383,0.3022 0.3957,0.7059 0.3558,0.0327 0.4393,0.1248 0.5098,0.1976l0.3316 0.3022c0.0132,0.0099 0.0322,0.0233 0.0451,0.0333 0.0128,0.0098 0.0318,0.0234 0.0443,0.0334 0.1031,0.0829 0.0745,0.0586 0.1228,0.1061l2.572 2.5336c0.4113,0.2195 0.2489,0.0673 0.6104,0.4057l0.956 0.9059c0.0126,0.0112 0.0293,0.0271 0.0424,0.0381l0.57 0.311c0.2249,0.1797 0.3407,0.3925 0.5424,0.4752 0.2647,0.1086 0.3084,0.0649 0.4958,0.2687l0.689 0.593c0.2307,0.0971 0.3383,0.092 0.5375,0.2486 0.4579,0.3601 0.6429,0.5366 1.2349,0.6732 0.3976,0.6487 0.6308,0.516 0.8439,0.6003l0.499 0.2938c0.192,0.0832 0.3226,0.1985 0.4718,0.3294 0.3935,0.3453 0.4868,0.4851 1.2464,0.5546l0.0767 0.2641c0.3327,0.0268 0.3995,0.0792 0.6072,0.2193l0.466 0.2336c0.169,0.1177 0.4154,0.0695 0.5741,0.1793 0.1218,0.1876 0.0248,0.1644 0.2482,0.2554 0.413,0.1681 0.2812,0.164 0.5009,0.2714 0.1091,0.0535 0.1543,0.0343 0.2611,0.0756l0.245 0.2491c0.1644,0.0764 0.361,0.0195 0.5422,0.139l0.6206 0.3069c0.2279,0.1546 0.5375,0.1583 0.8319,0.1868l0.0352 0.258 0.5919 0.0362 0.1239 0.2617 0.7768 0.0593 0.0859 0.2501c0.1473,0.0067 0.412,0.0106 0.5484,0.0417 0.3708,0.085 0.2974,0.2056 0.8676,0.2433 0.0648,0.0042 0.2498,0.0128 0.3029,0.0244 0.4238,0.0922 0.0356,0.1384 0.5532,0.2682 0.243,0.0609 0.0507,-0.0248 0.2511,0.0776l0.0901 0.0646c0.3334,0.1968 0.7503,0.0608 1.0783,0.2517 0.2455,0.1429 -0.2138,0.0773 0.3832,0.1714 0.7133,0.1125 0.3557,0.2195 0.8632,0.2857 1.1637,0.1515 2.3712,-0.0284 3.5387,0.0697 0.5176,0.0434 0.0604,-0.0206 0.3124,0.1552 0.2369,0.1649 0.8766,0.1746 1.1281,0.0334l0.0769 -0.0684c0.1169,-0.0903 -0.1277,-0.1127 0.7514,-0.1227 0.3924,-0.0044 0.7856,-0.0125 1.1781,-0.0188 0.3931,-0.0064 0.7856,-0.0205 1.1784,-0.0273 0.1183,-0.0021 0.4366,-0.0025 0.535,-0.0301 0.4884,-0.1362 -0.1353,-0.0526 0.3752,-0.2193 0.266,-0.0866 0.8379,-0.0232 1.0982,-0.1098 0.3457,-0.1151 0.0995,-0.1894 0.9888,-0.2425l0.1066 -0.2806c0.2207,-0.0037 0.4201,-0.0721 0.5567,-0.1584 0.1695,-0.1071 -0.2008,-0.0343 0.2591,-0.1066 0.0983,-0.0153 0.2866,-0.0174 0.3956,-0.0243 0.6932,-0.044 0.2131,-0.1169 1.3657,-0.2767l0.0373 -0.2462 0.7909 -0.0654 0.1574 -0.2517 0.5408 -0.0516 0.0869 -0.2385 0.764 -0.0704c0.0463,-0.3935 0.1837,-0.1703 0.6021,-0.4199l0.358 -0.1276 0.2537 -0.264 0.5319 -0.051c0.0354,-0.0188 0.0507,-0.1274 0.3261,-0.27 0.5595,-0.2893 0.1802,-0.2731 0.956,-0.3201 0.0234,-0.4572 -0.037,-0.1732 0.3439,-0.3249l0.5563 -0.2693c0.3251,-0.1107 0.5364,-0.4509 0.877,-0.5739 0.2166,-0.0192 0.3287,-0.01 0.4694,-0.1063 0.4352,-0.2976 0.296,-0.1492 0.5517,-0.3101l0.1186 -0.1063c0.452,-0.3916 0.5255,-0.2657 0.8154,-0.4572 0.1916,-0.1265 -0.0609,-0.0077 0.1526,-0.1478 0.1686,-0.1107 0.039,-0.0187 0.2363,-0.093 0.3582,-0.1346 0.393,-0.4354 0.6368,-0.5593 0.1244,-0.0098 0.2546,-0.0061 0.3736,-0.0538l0.7506 -0.4312c0.0113,-0.0095 0.0278,-0.0262 0.0394,-0.0359l0.311 -0.2619c0.0167,-0.0171 0.0627,-0.0686 0.0782,-0.086 0.2055,-0.2313 0.261,-0.2075 0.5343,-0.3193 0.2927,-0.1197 0.0489,-0.0127 0.2499,-0.2052l0.3756 -0.3286c0.1566,-0.0831 0.2025,-0.0428 0.3442,-0.1362l0.6295 -0.5565c0.0694,-0.0655 0.0461,-0.0509 0.1129,-0.1156l0.356 -0.3429c0.205,-0.1404 0.3708,-0.1617 0.5378,-0.3234l0.5782 -0.5275c0.2247,-0.1895 0.8709,-0.9167 1.0399,-0.9928 0.2728,-0.123 0.3376,-0.1325 0.5224,-0.3414l0.8171 -0.8243c0.0114,-0.0131 0.0266,-0.0308 0.0382,-0.044 0.0116,-0.0132 0.0271,-0.0307 0.0387,-0.044l0.1887 -0.2095c0.0763,-0.0746 0.0156,-0.0193 0.1244,-0.1079l0.224 -0.1691c0.0178,-0.0142 0.069,-0.0547 0.0859,-0.0699l0.7471 -0.7627c0.2971,-0.2429 0.7601,-0.7383 0.8066,-0.8196 0.1223,-0.2147 0.0838,-0.3416 0.2693,-0.5014l0.7858 -0.8038c0.0111,-0.0109 0.029,-0.0257 0.0401,-0.0366l0.6091 -0.6304c0.8803,-0.8578 0.0697,-0.245 0.7372,-1.0081l0.48 -0.5276c0.0089,-0.012 0.0244,-0.0289 0.0327,-0.0417 0.0088,-0.0136 0.0208,-0.0331 0.0285,-0.0479l0.2533 -0.5385c0.1726,-0.4143 0.0091,-0.3547 0.3194,-0.5129 0.1257,-2.1893 0.2797,0.2313 0.3073,-2.8578l-0.2515 -0.0315 -0.0426 -0.5621c-0.506,-0.4037 0.0488,-0.2013 -1.0582,-1.3453l-0.3987 -0.3965c-0.0132,-0.0104 -0.0329,-0.0229 -0.0461,-0.0331l-1.268 -1.1559c-0.11,-0.0584 -0.2093,-0.0524 -0.3047,-0.1023 -0.2252,-0.1177 0.0069,0.0792 -0.1522,-0.145l-0.0472 -0.0945c-0.8579,-0.0834 -0.5401,-0.3926 -0.9412,-0.591 -0.1608,-0.0132 -0.2175,0.0018 -0.3659,-0.0697l-0.1425 -0.1075c-0.7087,-0.4683 -0.7445,-0.3956 -1.6097,-0.4697l-0.1568 -0.2445c-4.3963,-0.1364 -8.8528,-0.0632 -13.2572,-0.0632 -13.2572,0 -26.5141,0 -39.7711,0.0636 -0.1965,0.2043 -0.1354,0.2182 -0.157,0.2455z"/>
 </g>
</svg>
