<?xml version="1.0" encoding="UTF-8"?>
<!DOCTYPE svg PUBLIC "-//W3C//DTD SVG 1.1//EN" "http://www.w3.org/Graphics/SVG/1.1/DTD/svg11.dtd">
<!-- Creator: CorelDRAW -->
<svg xmlns="http://www.w3.org/2000/svg" xml:space="preserve" width="210mm" height="151.982mm" style="shape-rendering:geometricPrecision; text-rendering:geometricPrecision; image-rendering:optimizeQuality; fill-rule:evenodd; clip-rule:evenodd"
viewBox="0 0 210 151.982"
 xmlns:xlink="http://www.w3.org/1999/xlink">
 <defs>
  <style type="text/css">
   <![CDATA[
    .fil0 {fill:black}
   ]]>
  </style>
 </defs>
 <g id="Capa_x0020_1">
  <metadata id="CorelCorpID_0Corel-Layer"/>
  <g id="_254487184">
   <path id="_254487112" class="fil0" d="M163.681 65.1796c-0.76,-2.4422 2.3095,-4.4766 3.8939,-0.4884 0.4562,1.1484 0.8248,2.1183 1.2709,3.2364 0.3635,0.9109 1.0963,2.5282 1.3482,3.4258 0.3814,1.359 -0.1812,2.5863 -1.6151,2.6526 -1.6653,0.077 -1.7881,-0.9362 -2.3072,-2.2538 -0.8334,-2.1153 -1.9773,-4.6015 -2.5907,-6.5726zm-9.0613 -0.5003c-0.1916,-1.7337 2.4607,-4.2409 4.1582,0.3092 0.4993,1.3382 2.4261,5.6921 2.5782,6.7381 0.2165,1.4875 -0.7563,2.5109 -2.2428,2.2396 -1.2625,-0.2304 -1.4721,-1.4261 -1.9239,-2.6424 -0.4664,-1.2553 -2.4703,-5.7437 -2.5697,-6.6445zm-80.0218 -47.4844l29.4137 -0.0312c1.038,5.3102 8.1743,34.2944 8.309,36.2528 0.2914,4.2401 0.014,22.0314 0.0135,27.1352l-13.8006 -0.0777c-0.7151,-2.5713 -2.7619,-6.1908 -4.0608,-8.2253 -2.7287,-4.2745 -8.0872,-9.9978 -12.1815,-12.8336l-7.6908 -4.8608 -0.0025 -37.3594zm-40.0093 32.3585c-0.1517,-2.253 4.7545,-27.2049 5.4176,-32.436l27.0335 -0.0463 0.0046 34.2968 -7.0472 -1.6502c-1.8878,-0.3445 -22.1813,-0.1161 -25.4085,-0.1643zm-1.8821 -34.8398l-6.0298 34.6027c-0.3461,0.5532 -3.1182,-0.1571 -6.0826,1.2075 -1.7197,0.7917 -2.9808,1.9591 -3.7441,3.7653l-4.17 10.9297 3.3097 1.6429c0.5785,-0.2189 4.5759,-3.2395 5.7147,-3.9722 6.1652,-3.9666 14.197,-6.7084 21.8346,-7.3234 27.2831,-2.1966 50.8328,18.1188 52.8747,44.8745 0.5616,7.3599 -0.3878,10.4526 -1.7245,17.4252l43.3046 -0.0051c0.4029,-2.6465 -0.2213,-4.2368 0.8945,-9.3189 0.628,-2.8605 1.4666,-5.1821 2.6087,-7.6595 2.4065,-5.2199 5.0712,-8.0422 8.6562,-12.015 -1.2255,-0.5779 -6.7798,-5.0474 -13.7613,-8.2579 -6.772,-3.114 -9.4839,-3.6671 -16.4951,-5.7153l0.0355 -3.598c3.7394,-0.0443 14.9306,4.3851 18.1592,5.861 2.6872,1.2282 5.5557,2.8144 7.945,4.3119 2.7962,1.7525 4.6421,3.1201 7.286,5.0228 1.3785,-0.6304 3.4612,-2.2886 6.7917,-3.7633 2.6181,-1.1593 5.118,-1.9336 8.2187,-2.5143l18.8174 1.5338c-0.0825,-4.9756 -0.9517,-15.421 -3.099,-19.0281 -0.896,-1.5049 -1.5584,-1.587 -3.305,-2.1876 -3.2663,-1.1232 -9.687,-3.2014 -12.6986,-3.8332l-37.7794 -6.2724c-0.3158,-4.8293 -0.0463,-19.6051 -0.0463,-25.5214 0,-4.2855 -0.6553,-8.5262 2.7446,-10.0932 3.862,-1.78 2.8194,-7.0638 -1.1543,-7.263 -3.3185,-0.1663 -6.3037,3.3128 -7.4628,5.3942 -1.771,3.1805 -1.6837,6.9238 -1.6837,10.9614l-0.0043 25.9265 -3.3555 -0.1479c-0.4835,-2.5818 -8.5853,-37.5769 -9.0648,-38.7249 -1.0037,-2.4027 -3.6627,-2.3727 -6.7113,-2.8219 -5.6713,-0.8355 -11.3464,-1.5491 -17.153,-2.075 -17.1913,-1.5571 -36.856,-2.0856 -54.0115,0.9538 -2.8482,0.5046 -5.4385,0.9352 -5.4688,4.1308 -0.0386,4.0815 3.7513,3.7447 5.8099,3.5675z"/>
   <path id="_254486896" class="fil0" d="M23.8184 106.204c-1.1436,-13.7394 9.4262,-24.8538 21.9296,-25.8049 13.9041,-1.0576 24.8885,9.4438 25.8102,22.0442 1.0099,13.8046 -9.5167,24.7639 -22.0821,25.6948 -13.8012,1.0223 -24.6215,-9.4853 -25.6577,-21.9341zm66.2935 1.0006c1.8309,-24.2359 -17.1512,-43.8213 -39.3385,-45.3381 -24.4707,-1.6729 -43.9507,16.9534 -45.5177,39.3272 -1.701,24.2872 17.1701,44.2391 39.506,45.4954 24.6186,1.3846 43.6414,-16.8652 45.3502,-39.4845z"/>
   <path id="_254486872" class="fil0" d="M160.606 117.711c-0.7101,-8.2499 5.5568,-14.8245 13.0225,-15.4095 8.1536,-0.6388 14.7821,5.5426 15.3786,12.927 0.6672,8.2586 -5.489,14.8091 -12.9132,15.455 -8.3051,0.7225 -14.8459,-5.5133 -15.4879,-12.9725zm44.3528 1.751c1.9785,-17.5586 -11.7887,-31.5208 -27.0598,-33.0863 -17.5633,-1.8005 -31.6324,11.3971 -33.2147,26.9343 -1.8034,17.7084 11.4482,31.7001 26.944,33.3092 17.86,1.8545 31.5541,-11.3929 33.3305,-27.1572z"/>
   <path id="_254488000" class="fil0" d="M44.8678 88.1693c-8.0787,1.5871 -15.0825,8.8834 -13.3073,18.9703 1.4012,7.9618 9.2305,14.9602 18.9054,13.2593 7.9911,-1.4049 15.0623,-9.1016 13.3505,-18.9847 -1.3696,-7.9072 -9.2412,-15.152 -18.9486,-13.2449z"/>
  </g>
 </g>
</svg>
